<svg width="43" height="44" viewBox="0 0 43 44" fill="none" xmlns="http://www.w3.org/2000/svg">
<path d="M21.082 31.5688C29.6745 27.2291 30.1607 20.9551 29.0174 18.6016L41.1118 22.9068C39.2345 29.3131 35.185 34.3589 33.44 35.9949L27.2866 33.9601L21.082 31.5688Z" fill="#2D5984"/>
<path d="M21.7051 44.0014C8.63589 39.0417 3.07523 28.5768 2.14258 23.8984L33.4384 35.9936C29.9004 39.7133 24.142 42.882 21.7051 44.0014Z" fill="#EE932C"/>
<path d="M14.3062 18.5137C12.1401 24.7133 19.3576 30.2167 22.0352 31.5657L2.93526 26.5531C-1.18549 20.1807 -0.0345389 11.8221 0.857946 8.43937C7.21201 8.43937 12.471 6.43018 14.3062 5.51172V18.5137Z" fill="#E97037"/>
<path d="M21.3447 0C20.5505 1.51546 16.2903 4.30528 14.3047 5.51076V18.524C15.46 15.0798 19.0582 14.0065 20.7129 13.9491C25.3341 13.5358 28.114 16.7619 28.9263 18.4266L34.9735 20.8376L41.1109 22.9041C43.0605 17.4622 42.6152 10.8206 42.194 8.26615C29.9913 7.92172 23.2401 2.61187 21.3447 0Z" fill="#262D3C"/>
<path d="M24.8652 29.189C30.2084 25.0559 29.7993 20.2914 28.9268 18.4258L41.1115 22.9033C39.1619 24.3499 29.4683 27.7539 24.8652 29.189Z" fill="#244263"/>
</svg>
